<svg id="Untitled-2" xmlns="http://www.w3.org/2000/svg" width="100" height="103.486" viewBox="0 0 100 103.486">
  <path id="Path_82" data-name="Path 82" d="M28,478.3c-.356-.164-.713-.324-1.067-.492-2.355-1.107-3.524-3.645-2.995-6.593h92.6c.608,3.321-.788,5.769-3.848,6.9-.083.031-.144.121-.215.184Z" transform="translate(-20.257 -374.81)" fill="#535050"/>
  <path id="Path_83" data-name="Path 83" d="M82.35,175.484c-1.272,2.56-2.651,5.024-3.742,7.61a36.376,36.376,0,0,0-2.732,14.874,5.361,5.361,0,0,0,4.477,5.33,5.239,5.239,0,0,0,5.873-3.534,9.28,9.28,0,0,0,.324-2.681A27.356,27.356,0,0,1,91.612,181.3c.19-.271.405-.524.658-.848,7.237,5.178,12.581,11.573,13.77,20.643a23.653,23.653,0,0,1-1.353,11.82c-2.025,5.172-6.111,7.565-11.421,8.134a50.272,50.272,0,0,1-5.243.2q-32.536.018-65.068-.022a28.218,28.218,0,0,1-6.393-.7c-5.468-1.294-8.45-5.063-9.615-10.4-2.175-9.963.911-18.288,7.993-25.341a39.268,39.268,0,0,1,11.01-7.571c.2-.1.421-.176.81-.338-.215.395-.334.642-.478.877a37,37,0,0,0-5.67,20.408,5.2,5.2,0,0,0,4.629,5.144,5.256,5.256,0,0,0,5.85-4.127,31.5,31.5,0,0,0,.275-3.619,27.654,27.654,0,0,1,9.374-18.849c1.644-1.482,3.487-2.746,5.265-4.07a5.071,5.071,0,0,1,3.145-1.134c2.321,0,4.641-.18,6.962-.273a5.307,5.307,0,0,1,.788.071c-1.488,2.242-3.08,4.376-4.4,6.67a39.026,39.026,0,0,0-5.174,19.669c0,3.285,2.191,5.658,5.253,5.686a5.277,5.277,0,0,0,5.421-5.532,30.432,30.432,0,0,1,1.885-10.463,29.914,29.914,0,0,1,11.152-14.359,1.645,1.645,0,0,1,1.087-.33c3.374.885,6.731,1.823,10.091,2.762A.3.3,0,0,1,82.35,175.484ZM56.189,217.653H89.326a6.973,6.973,0,0,0,1.013-.024,1.715,1.715,0,0,0,1.527-1.823,1.631,1.631,0,0,0-1.575-1.648,8.805,8.805,0,0,0-1.012-.035H23.205a8.419,8.419,0,0,0-1.108.047,1.636,1.636,0,0,0-1.48,1.735c.016,1.142.776,1.746,2.228,1.746Z" transform="translate(-6.263 -135.584)" fill="#535050"/>
  <path id="Path_84" data-name="Path 84" d="M56.353,439.144H9.389c-.371,0-.741.01-1.11,0a1.717,1.717,0,0,1-1.79-1.667,1.784,1.784,0,0,1,1.669-1.916,6.283,6.283,0,0,1,.81-.016H103.9c1.62,0,2.416.579,2.448,1.76a1.711,1.711,0,0,1-1.62,1.823c-.405.034-.81.018-1.215.018Z" transform="translate(-6.441 -346.362)" fill="#535050"/>
  <path id="Path_85" data-name="Path 85" d="M242.456,172.7c-.68.607-1.215,1.067-1.7,1.545a33.448,33.448,0,0,0-10.569,23.49c-.016.4-.018.81-.051,1.215a1.793,1.793,0,0,1-1.723,1.766,1.772,1.772,0,0,1-1.822-1.77,31.274,31.274,0,0,1,.154-4.133,36.223,36.223,0,0,1,10.236-21.87,1.74,1.74,0,0,1,1.683-.575C239.84,172.531,241.039,172.578,242.456,172.7Z" transform="translate(-181.962 -136.45)" fill="#535050"/>
  <path id="Path_86" data-name="Path 86" d="M109.957,178.854c-.776.723-1.579,1.418-2.327,2.171a31.94,31.94,0,0,0-9.562,22.425c0,.168,0,.338-.01.5a1.851,1.851,0,0,1-1.8,1.822,1.811,1.811,0,0,1-1.8-1.905,34.4,34.4,0,0,1,8.614-22.99,2.228,2.228,0,0,1,.952-.687c1.936-.539,3.888-1.012,5.836-1.515Z" transform="translate(-76.597 -141.517)" fill="#535050"/>
  <path id="Path_87" data-name="Path 87" d="M377.176,201.485c-1.138,2.1-2.323,4.05-3.287,6.1a29.348,29.348,0,0,0-2.7,12.6c0,.235.012.472,0,.707a1.855,1.855,0,0,1-1.867,1.952,1.8,1.8,0,0,1-1.721-1.974,34.286,34.286,0,0,1,6.063-20.313c.334-.494.608-.608,1.13-.31C375.576,200.687,376.386,201.08,377.176,201.485Z" transform="translate(-294.426 -158.587)" fill="#535050"/>
  <path id="Path_88" data-name="Path 88" d="M242.605,7.481a7.386,7.386,0,0,1-2.321,5,1.81,1.81,0,0,1-2.545.014,1.756,1.756,0,0,1-.067-2.462c.1-.132.229-.247.338-.375,1.351-1.561,1.268-2.908-.263-4.279a6.214,6.214,0,0,1-.2-9.505,1.834,1.834,0,0,1,2.683-.223,1.808,1.808,0,0,1-.055,2.681c-1.6,1.823-1.545,2.977.273,4.629A6.576,6.576,0,0,1,242.605,7.481Z" transform="translate(-189.026 4.839)" fill="#535050"/>
  <path id="Path_89" data-name="Path 89" d="M142,66.027c-.474-.367-1.144-.642-1.369-1.126a3.491,3.491,0,0,1,.022-1.79c.032-.225.324-.405.5-.608,1.34-1.551,1.264-2.938-.278-4.279-3.24-2.817-2.835-6.836-.117-9.576a1.794,1.794,0,0,1,2.608-.15,1.765,1.765,0,0,1,.012,2.61c-1.691,2-1.632,2.973.279,4.773,3.139,2.957,2.353,7.047-.326,9.5A5.8,5.8,0,0,1,142,66.027Z" transform="translate(-111.786 -37.304)" fill="#535050"/>
  <path id="Path_90" data-name="Path 90" d="M336.192,47.41c.415.312,1.089.581,1.32,1.063a3.206,3.206,0,0,1-.012,1.79c-.053.284-.419.5-.632.765a2.617,2.617,0,0,0,.314,4.064,6.331,6.331,0,0,1,2.274,3.809,6.533,6.533,0,0,1-2.365,6.1,1.727,1.727,0,0,1-2.3-.1,1.708,1.708,0,0,1-.2-2.367c.156-.217.356-.4.528-.607,1.244-1.5,1.16-2.835-.322-4.129a6.109,6.109,0,0,1-2.319-4.325,6.594,6.594,0,0,1,2.57-5.644A4.4,4.4,0,0,1,336.192,47.41Z" transform="translate(-266.405 -36.829)" fill="#535050"/>
</svg>
