<svg id="Untitled-2" xmlns="http://www.w3.org/2000/svg" xmlns:xlink="http://www.w3.org/1999/xlink" width="100" height="84.654" viewBox="0 0 100 84.654">
  <defs>
    <filter id="Path_107">
      <feOffset dy="3" input="SourceAlpha"/>
      <feGaussianBlur stdDeviation="3" result="blur"/>
      <feFlood flood-color="#dae4f6" flood-opacity="0.161" result="color"/>
      <feComposite operator="out" in="SourceGraphic" in2="blur"/>
      <feComposite operator="in" in="color"/>
      <feComposite operator="in" in2="SourceGraphic"/>
    </filter>
  </defs>
  <path id="Path_104" data-name="Path 104" d="M25,248.71a6.5,6.5,0,0,0,2.412-4.346,25.313,25.313,0,0,1,4.9-10.715,32.426,32.426,0,0,1,20.01-11.917c10.213-2.006,19.871-.487,28.631,5.345,5.9,3.929,10.141,9.209,11.827,16.2,2.035,8.419-.178,15.883-5.826,22.3-5.6,6.358-12.846,9.77-21.165,10.937a36.988,36.988,0,0,1-25.837-5.356c-6.6-4.221-11.013-10.06-12.585-17.878A6.1,6.1,0,0,0,25,249.147Zm51.993.189c.482-.11.713-.158.941-.219a8.8,8.8,0,0,0,6.758-8.468,8.652,8.652,0,0,0-6.508-8.415,2.614,2.614,0,0,1-1.769-1.357,8.406,8.406,0,0,0-10.807-3.477c-1.754.848-3.289,1.64-5.3,1.024a3.612,3.612,0,0,1-1.7-.71,10.427,10.427,0,0,0-16.558,3.148,2.359,2.359,0,0,1-1.55,1.445,6.938,6.938,0,1,0,4.887,12.976,3.241,3.241,0,0,1,2.646-.068,10.649,10.649,0,0,0,9.533-1.274,7.1,7.1,0,0,0,5.133,3.569,7.278,7.278,0,0,0,6.049-1.96,9.439,9.439,0,0,0,6.1,3.773c-2.969.954-3.587,1.066-6.139,3.767-4.089-3.324-8.733-2.166-11.224,1.664a10.928,10.928,0,0,0-10.417-.921,1.711,1.711,0,0,1-1.193-.219,7.062,7.062,0,0,0-9.663,3.611,6.929,6.929,0,0,0,4.431,9.275,1.848,1.848,0,0,1,1.276,1.136,10.312,10.312,0,0,0,14.785,4.74c1.785-1.1,3.414-2.331,5.6-2.359a2.416,2.416,0,0,1,1.346.272,8.764,8.764,0,0,0,13.006-2.734,2.074,2.074,0,0,1,1.184-.877,8.9,8.9,0,0,0,6.874-8.069,8.751,8.751,0,0,0-5.745-8.665c-.559-.208-1.138-.355-1.971-.607Z" transform="translate(-25 -192.287)" fill="#535050"/>
  <path id="Path_105" data-name="Path 105" d="M361.507,90.42a11.767,11.767,0,0,0,2.315,1.015c8.917,1.829,15.129,7.172,19.352,14.986a37.054,37.054,0,0,1,4.144,21.965c-.919,8.707-4.278,16.278-10.768,22.283a24.83,24.83,0,0,1-15.26,6.784V90.42Zm8.113,54.113c10.053-12.778,8.514-31.617-1.886-42.275l-2.342,2.136c9.588,12.4,10.145,25.085,1.649,38.21Z" transform="translate(-287.556 -90.42)" fill="#535050"/>
  <path id="Path_106" data-name="Path 106" d="M254.666,90.42v46.992c-5-11.439-13.864-17.7-25.456-20.773.105-.553.18-1.112.32-1.655,2.21-8.483,6.549-15.491,14.109-20.244a25.4,25.4,0,0,1,8.17-3.236,16.037,16.037,0,0,0,2.631-1.077Z" transform="translate(-184.435 -90.42)" fill="#535050"/>
  <g data-type="innerShadowGroup">
    <path id="Path_107-2" data-name="Path 107" d="M115.1,261.6c.833.252,1.412.4,1.973.6a8.755,8.755,0,0,1,5.745,8.665,8.9,8.9,0,0,1-6.872,8.069,2.074,2.074,0,0,0-1.184.877,8.764,8.764,0,0,1-13.006,2.734,2.379,2.379,0,0,0-1.346-.272c-2.193.029-3.813,1.254-5.6,2.359a10.312,10.312,0,0,1-14.785-4.74,1.848,1.848,0,0,0-1.276-1.136,6.929,6.929,0,0,1-4.425-9.27,7.067,7.067,0,0,1,9.663-3.611,1.763,1.763,0,0,0,1.193.219,10.911,10.911,0,0,1,10.417.921c2.491-3.831,7.135-4.988,11.224-1.664,2.546-2.7,3.164-2.813,6.139-3.767a9.418,9.418,0,0,1-6.1-3.773,7.277,7.277,0,0,1-6.049,1.96,7.077,7.077,0,0,1-5.133-3.57,10.648,10.648,0,0,1-9.533,1.274,3.242,3.242,0,0,0-2.646.068,6.935,6.935,0,1,1-4.9-12.963,2.359,2.359,0,0,0,1.55-1.445,10.427,10.427,0,0,1,16.558-3.149,3.693,3.693,0,0,0,1.7.71c2.013.616,3.548-.175,5.3-1.024a8.4,8.4,0,0,1,10.807,3.466,2.615,2.615,0,0,0,1.769,1.357,8.652,8.652,0,0,1,6.508,8.415,8.8,8.8,0,0,1-6.755,8.483C115.817,261.444,115.586,261.492,115.1,261.6ZM99.633,278.982c1.631-1.416,2.666-.814,3.87.423a5.139,5.139,0,0,0,8.52-2.048A2.268,2.268,0,0,1,114.4,275.6a5.215,5.215,0,0,0,4.813-6.424,5.273,5.273,0,0,0-4.624-4.028,5.209,5.209,0,0,0-5.453,3.508c-.344.984-.8,1.684-1.938,1.754a2.1,2.1,0,0,1-2.239-1.535,2.546,2.546,0,0,0-.465-.732,3.36,3.36,0,0,0-3.642-1.112,3.44,3.44,0,0,0-2.515,3.1c-.167,1.721-1.506,2.541-2.741,1.655a5.823,5.823,0,0,1-.831-.859c-1.991-2.155-5.247-2.914-7.525-1.754.219.958.428,1.919.658,2.947H84.441a11.275,11.275,0,0,0-.392-1.368,3.517,3.517,0,1,0-3.655,4.876c1.833.171,1.916.241,2.449,2.022a7.117,7.117,0,0,0,5.931,4.971,6.905,6.905,0,0,0,7.122-3.995,22.415,22.415,0,0,0,.877-2.925h3.357C99.979,276.724,99.833,277.691,99.633,278.982Zm-2.978-31.391c-.419-3.905-2.85-6.593-6.192-6.931-3.688-.373-6.514,1.631-7.7,5.481a1.95,1.95,0,0,1-1.986,1.524,3.416,3.416,0,0,0-3.212,3.263,3.4,3.4,0,0,0,6.694,1.083c.077-.27.112-.55.162-.807h3.508l-.68,2.914c2.519,1.2,5.622.368,7.834-2.118a1.778,1.778,0,0,1,2-.763,1.87,1.87,0,0,1,1.285,1.833,3.543,3.543,0,0,0,2.85,3.289,3.441,3.441,0,0,0,3.824-2.081,2.066,2.066,0,0,1,2.208-1.394c1.085.061,1.546.719,1.879,1.668a5.253,5.253,0,0,0,10.209-2.236,5.2,5.2,0,0,0-5.185-4.657,2.116,2.116,0,0,1-2.043-1.478,7.827,7.827,0,0,0-1.55-2.447,5.118,5.118,0,0,0-7.411.463c-1.079,1.188-1.491,1.256-2.923.5a4.467,4.467,0,0,0-.517-.191c.145,1.063.283,2.048.438,3.1Z" transform="translate(-63.109 -204.989)" fill="#fff"/>
    <g transform="matrix(1, 0, 0, 1, 0, 0)" filter="url(#Path_107)">
      <path id="Path_107-3" data-name="Path 107" d="M115.1,261.6c.833.252,1.412.4,1.973.6a8.755,8.755,0,0,1,5.745,8.665,8.9,8.9,0,0,1-6.872,8.069,2.074,2.074,0,0,0-1.184.877,8.764,8.764,0,0,1-13.006,2.734,2.379,2.379,0,0,0-1.346-.272c-2.193.029-3.813,1.254-5.6,2.359a10.312,10.312,0,0,1-14.785-4.74,1.848,1.848,0,0,0-1.276-1.136,6.929,6.929,0,0,1-4.425-9.27,7.067,7.067,0,0,1,9.663-3.611,1.763,1.763,0,0,0,1.193.219,10.911,10.911,0,0,1,10.417.921c2.491-3.831,7.135-4.988,11.224-1.664,2.546-2.7,3.164-2.813,6.139-3.767a9.418,9.418,0,0,1-6.1-3.773,7.277,7.277,0,0,1-6.049,1.96,7.077,7.077,0,0,1-5.133-3.57,10.648,10.648,0,0,1-9.533,1.274,3.242,3.242,0,0,0-2.646.068,6.935,6.935,0,1,1-4.9-12.963,2.359,2.359,0,0,0,1.55-1.445,10.427,10.427,0,0,1,16.558-3.149,3.693,3.693,0,0,0,1.7.71c2.013.616,3.548-.175,5.3-1.024a8.4,8.4,0,0,1,10.807,3.466,2.615,2.615,0,0,0,1.769,1.357,8.652,8.652,0,0,1,6.508,8.415,8.8,8.8,0,0,1-6.755,8.483C115.817,261.444,115.586,261.492,115.1,261.6ZM99.633,278.982c1.631-1.416,2.666-.814,3.87.423a5.139,5.139,0,0,0,8.52-2.048A2.268,2.268,0,0,1,114.4,275.6a5.215,5.215,0,0,0,4.813-6.424,5.273,5.273,0,0,0-4.624-4.028,5.209,5.209,0,0,0-5.453,3.508c-.344.984-.8,1.684-1.938,1.754a2.1,2.1,0,0,1-2.239-1.535,2.546,2.546,0,0,0-.465-.732,3.36,3.36,0,0,0-3.642-1.112,3.44,3.44,0,0,0-2.515,3.1c-.167,1.721-1.506,2.541-2.741,1.655a5.823,5.823,0,0,1-.831-.859c-1.991-2.155-5.247-2.914-7.525-1.754.219.958.428,1.919.658,2.947H84.441a11.275,11.275,0,0,0-.392-1.368,3.517,3.517,0,1,0-3.655,4.876c1.833.171,1.916.241,2.449,2.022a7.117,7.117,0,0,0,5.931,4.971,6.905,6.905,0,0,0,7.122-3.995,22.415,22.415,0,0,0,.877-2.925h3.357C99.979,276.724,99.833,277.691,99.633,278.982Zm-2.978-31.391c-.419-3.905-2.85-6.593-6.192-6.931-3.688-.373-6.514,1.631-7.7,5.481a1.95,1.95,0,0,1-1.986,1.524,3.416,3.416,0,0,0-3.212,3.263,3.4,3.4,0,0,0,6.694,1.083c.077-.27.112-.55.162-.807h3.508l-.68,2.914c2.519,1.2,5.622.368,7.834-2.118a1.778,1.778,0,0,1,2-.763,1.87,1.87,0,0,1,1.285,1.833,3.543,3.543,0,0,0,2.85,3.289,3.441,3.441,0,0,0,3.824-2.081,2.066,2.066,0,0,1,2.208-1.394c1.085.061,1.546.719,1.879,1.668a5.253,5.253,0,0,0,10.209-2.236,5.2,5.2,0,0,0-5.185-4.657,2.116,2.116,0,0,1-2.043-1.478,7.827,7.827,0,0,0-1.55-2.447,5.118,5.118,0,0,0-7.411.463c-1.079,1.188-1.491,1.256-2.923.5a4.467,4.467,0,0,0-.517-.191c.145,1.063.283,2.048.438,3.1Z" transform="translate(-63.11 -204.99)" fill="#fff"/>
    </g>
  </g>
  <path id="Path_108" data-name="Path 108" d="M384.267,186.685l-2.578-1.929c8.5-13.125,7.939-25.811-1.649-38.21l2.342-2.136C392.781,155.064,394.32,173.907,384.267,186.685Z" transform="translate(-302.195 -132.572)" fill="#fff"/>
  <path id="Path_109" data-name="Path 109" d="M112.155,378.518c.2-1.3.346-2.258.5-3.289H109.3a22.425,22.425,0,0,1-.877,2.925,6.9,6.9,0,0,1-7.122,3.995,7.077,7.077,0,0,1-5.92-4.971c-.533-1.78-.616-1.851-2.449-2.022a3.527,3.527,0,0,1-.4-6.928,3.571,3.571,0,0,1,4.05,2.039,11.262,11.262,0,0,1,.392,1.368h3.46c-.219-1.028-.439-1.989-.658-2.947,2.278-1.158,5.534-.4,7.525,1.754a5.826,5.826,0,0,0,.831.86c1.234.877,2.574.066,2.741-1.655a3.432,3.432,0,0,1,2.515-3.1,3.351,3.351,0,0,1,3.642,1.112,2.544,2.544,0,0,1,.465.732,2.106,2.106,0,0,0,2.239,1.535c1.158-.059,1.594-.761,1.938-1.754a5.248,5.248,0,1,1,5.264,6.944,2.271,2.271,0,0,0-2.381,1.754,5.14,5.14,0,0,1-8.52,2.048C114.822,377.7,113.782,377.1,112.155,378.518Z" transform="translate(-75.631 -304.525)" fill="#535050"/>
  <path id="Path_110" data-name="Path 110" d="M109.932,259.878H113.4c-.145-1.048-.283-2.033-.439-3.1a4.492,4.492,0,0,1,.517.191c1.432.759,1.844.691,2.923-.5a5.118,5.118,0,0,1,7.411-.463,7.8,7.8,0,0,1,1.55,2.447,2.116,2.116,0,0,0,2.044,1.478,5.192,5.192,0,0,1,5.185,4.657,5.253,5.253,0,0,1-10.209,2.236c-.333-.949-.792-1.609-1.879-1.669a2.069,2.069,0,0,0-2.208,1.395,3.441,3.441,0,0,1-3.824,2.081,3.526,3.526,0,0,1-2.85-3.289,1.876,1.876,0,0,0-1.285-1.833,1.755,1.755,0,0,0-2,.763c-2.206,2.493-5.308,3.335-7.834,2.125.219-.936.439-1.879.68-2.914H97.675c-.05.257-.086.537-.162.807a3.493,3.493,0,0,1-3.8,2.6,3.529,3.529,0,0,1-2.9-3.681,3.416,3.416,0,0,1,3.212-3.262,1.95,1.95,0,0,0,1.986-1.524c1.191-3.848,4.017-5.852,7.7-5.482C107.081,253.285,109.493,255.973,109.932,259.878Z" transform="translate(-76.385 -217.276)" fill="#5c5959"/>
</svg>
