<svg xmlns="http://www.w3.org/2000/svg" width="104.278" height="100" viewBox="0 0 104.278 100">
  <g id="Group_4282" data-name="Group 4282" transform="translate(-11670 -342)">
    <path id="Path_58924" data-name="Path 58924" d="M-582.312-145.04a2.683,2.683,0,0,1,1.837,2.992c-.076,3.534-.059,7.073,0,10.611.02,1.408-.337,2.473-1.91,2.9.908,1.712,1.818,3.328,2.636,4.991,1.973,4.014,4.091,7.967,5.8,12.087a30.215,30.215,0,0,1,2.012,11.67q.014,9.332,0,18.663v1.29c.435-.178.765-.3,1.084-.447q21.222-9.65,42.445-19.323a5.961,5.961,0,0,1,7.254,1.114,33.826,33.826,0,0,1,10.948,21.033,6.237,6.237,0,0,0,.2.78v27.344a5.872,5.872,0,0,1-2.449,3.33,20.181,20.181,0,0,1-2.632.955h-91.462a1.986,1.986,0,0,0-.378-.135c-4.814-.816-7.346-3.818-7.346-8.683q0-22.785-.01-45.571a37.174,37.174,0,0,1,4.371-17.686c1.837-3.469,3.693-6.938,5.538-10.419.169-.316.314-.647.494-1.02a2.367,2.367,0,0,1-1.865-2.7c.051-3.6.076-7.207,0-10.815a2.637,2.637,0,0,1,1.855-2.969Zm-27.9,67.748v23.467c0,2.955,1.565,4.573,4.489,4.577q12.623.018,25.246,0c2.857,0,4.469-1.655,4.469-4.506V-99.346a33.537,33.537,0,0,0-3.02-14.015,1.192,1.192,0,0,0-1.275-.853q-12.825.041-25.652,0a1.153,1.153,0,0,0-1.224.786,33.521,33.521,0,0,0-3.034,14.009Q-610.217-88.36-610.215-77.292ZM-572.9-49.378h23.034c-1.888-5.228-1.175-8.875,2.19-11.427a8.555,8.555,0,0,1,10.319-.165c3.543,2.577,4.285,6.081,2.4,11.666h19.547a1.127,1.127,0,0,0,1.281-1.151c.041-2.845.016-5.689.016-8.6-3.714.22-6.634-1.065-8.536-4.2-1.922-3.169-1.633-6.387.237-9.591h-33.656c1.084,3.526.408,6.483-2.59,8.646a6.705,6.705,0,0,1-7.744.08c-3.11-2.159-3.838-5.15-2.712-8.726H-571.9v1.192c0,5.44-.012,10.881,0,16.325.006,1.981.055,3.985-1,5.948Zm5.471-27.913.063.165h53.072a29.6,29.6,0,0,0-10.264-18.8,1.539,1.539,0,0,0-1.308-.247c-1.441.563-2.828,1.257-4.285,1.928,2.151,2.494,2.728,5.165,1.1,8.026a6.019,6.019,0,0,1-6.326,3.187c-3.487-.443-5.281-2.732-5.861-6.183ZM-604.6-118.363h22.975c-1.786-3.363-3.5-6.626-5.271-9.858-.137-.249-.68-.384-1.037-.386-3.469-.029-6.922,0-10.383-.031a1.227,1.227,0,0,0-1.263.763c-1.02,1.992-2.081,3.961-3.128,5.938Zm19.939-14.4v-7.987h-16.909v7.979Zm42.249,83.228a4.4,4.4,0,0,0,3.159-1.271,4.4,4.4,0,0,0,1.3-3.145,4.53,4.53,0,0,0-4.444-4.489,4.489,4.489,0,0,0-4.444,4.475,4.361,4.361,0,0,0,1.275,3.152A4.361,4.361,0,0,0-542.416-49.539Zm28.291-13.807V-71c0-1.41,0-1.428-1.4-1.347a3.657,3.657,0,0,0-.7.108,4.6,4.6,0,0,0-3.491,5.218c.457,2.53,2.685,4.055,5.589,3.665Zm-45.616-6.661a2.9,2.9,0,0,0-2.818-2.9,2.828,2.828,0,0,0-2.011.825,2.828,2.828,0,0,0-.831,2.009,2.857,2.857,0,0,0,2.781,2.908A2.946,2.946,0,0,0-559.741-70.007ZM-536.947-89.5a2.341,2.341,0,0,0,2.294,2.367,2.367,2.367,0,0,0,2.318-2.357,2.261,2.261,0,0,0-.656-1.605,2.261,2.261,0,0,0-1.6-.668,2.245,2.245,0,0,0-1.668.622,2.244,2.244,0,0,0-.691,1.641Z" transform="translate(12284.282 487.05)" fill="#535050"/>
    <path id="Path_58925" data-name="Path 58925" d="M-594.353,42.959V20.826a33.521,33.521,0,0,1,3.034-14.011,1.147,1.147,0,0,1,1.224-.786q12.827.031,25.652,0a1.2,1.2,0,0,1,1.275.853,33.537,33.537,0,0,1,3.02,14.015q.018,22.8,0,45.593c0,2.857-1.62,4.5-4.469,4.506q-12.623.018-25.246,0c-2.922,0-4.489-1.622-4.489-4.577Q-594.355,54.686-594.353,42.959Zm4.285,2.245V62.753c0,1.547.926,2.434,2.324,2.273,1.106-.127,1.741-.969,1.741-2.353V28.005a4.085,4.085,0,0,0-.018-.612,2.075,2.075,0,0,0-2.361-1.735,2.112,2.112,0,0,0-1.686,2.324q-.01,8.6,0,17.221ZM-586,18.449a2.055,2.055,0,0,0-.636-1.45,2.055,2.055,0,0,0-1.478-.568,2.041,2.041,0,0,0-1.953,2.057,2.067,2.067,0,0,0,.637,1.451,2.067,2.067,0,0,0,1.477.574,2.092,2.092,0,0,0,1.949-2.071Z" transform="translate(12268.42 366.8)" fill="#535050"/>
    <path id="Path_58926" data-name="Path 58926" d="M-411.49,232.151c1.059-1.963,1.01-3.967,1-5.975-.018-5.44,0-10.881,0-16.325V208.66h2.771c-1.126,3.575-.4,6.567,2.712,8.726a6.705,6.705,0,0,0,7.744-.08c3-2.163,3.673-5.12,2.59-8.646h33.664c-1.875,3.212-2.159,6.43-.237,9.591,1.9,3.134,4.822,4.42,8.536,4.2,0,2.91.024,5.755-.016,8.6a1.123,1.123,0,0,1-1.281,1.151h-19.547c1.881-5.585,1.143-9.089-2.4-11.666a8.555,8.555,0,0,0-10.319.165c-3.365,2.559-4.081,6.205-2.19,11.427Z" transform="translate(12122.872 205.518)" fill="#535050"/>
    <path id="Path_58927" data-name="Path 58927" d="M-384.68,113.17l26.181-11.915c.58,3.451,2.373,5.74,5.861,6.183a6.019,6.019,0,0,0,6.326-3.187c1.633-2.857,1.053-5.532-1.1-8.026,1.465-.671,2.857-1.365,4.285-1.928a1.539,1.539,0,0,1,1.308.237,29.6,29.6,0,0,1,10.264,18.8h-53.064Z" transform="translate(12101.533 296.589)" fill="#fff"/>
    <path id="Path_58928" data-name="Path 58928" d="M-566.85-54.346l1.894-3.573c1.047-1.977,2.11-3.947,3.128-5.938a1.224,1.224,0,0,1,1.263-.763c3.469.029,6.922,0,10.383.031.357,0,.9.137,1.037.386,1.771,3.232,3.485,6.5,5.271,9.858Z" transform="translate(12246.529 423.033)" fill="#fff"/>
    <path id="Path_58929" data-name="Path 58929" d="M-535.092-116.013H-552V-124h16.908Z" transform="translate(12234.709 470.296)" fill="#fff"/>
    <path id="Path_58930" data-name="Path 58930" d="M-279.366,288.21a4.361,4.361,0,0,1-3.153-1.28,4.361,4.361,0,0,1-1.273-3.156,4.489,4.489,0,0,1,4.446-4.483,4.53,4.53,0,0,1,4.444,4.489,4.4,4.4,0,0,1-1.3,3.155A4.4,4.4,0,0,1-279.366,288.21Z" transform="translate(12021.233 149.301)" fill="#fff"/>
    <path id="Path_58932" data-name="Path 58932" d="M-369.081,211.4a2.946,2.946,0,0,1-2.879,2.845,2.857,2.857,0,0,1-2.781-2.908,2.828,2.828,0,0,1,.831-2.009,2.828,2.828,0,0,1,2.011-.825A2.9,2.9,0,0,1-369.081,211.4Z" transform="translate(12093.623 205.646)" fill="#fff"/>
    <path id="Path_58933" data-name="Path 58933" d="M-235.321,118.342a2.245,2.245,0,0,1,.689-1.64,2.245,2.245,0,0,1,1.666-.623,2.261,2.261,0,0,1,1.6.668,2.261,2.261,0,0,1,.656,1.605,2.367,2.367,0,0,1-2.318,2.357A2.341,2.341,0,0,1-235.321,118.342Z" transform="translate(11982.652 279.209)" fill="#fff"/>
    <path id="Path_58934" data-name="Path 58934" d="M-573.382,121.633V104.4a2.112,2.112,0,0,1,1.686-2.324,2.075,2.075,0,0,1,2.361,1.735,4.077,4.077,0,0,1,.018.612v34.668c0,1.384-.635,2.226-1.741,2.353-1.4.161-2.322-.726-2.324-2.273Q-573.388,130.393-573.382,121.633Z" transform="translate(12251.73 290.37)" fill="#fff"/>
    <path id="Path_58935" data-name="Path 58935" d="M-569.258,59.007a2.092,2.092,0,0,1-1.949,2.071,2.067,2.067,0,0,1-2.1-2.014A2.041,2.041,0,0,1-571.368,57a2.055,2.055,0,0,1,1.473.566A2.055,2.055,0,0,1-569.258,59.007Z" transform="translate(12251.672 326.233)" fill="#fff"/>
  </g>
</svg>
