<svg id="Untitled-3" xmlns="http://www.w3.org/2000/svg" width="100" height="100.394" viewBox="0 0 100 100.394">
  <path id="Path_111" data-name="Path 111" d="M93.332,179.843H-2.352c-2.2-1.226-2.627-2.358-1.707-4.75A21.66,21.66,0,0,1,5.961,163.723a1.5,1.5,0,0,0,.912-1.768c-.161-1.13-.289-2.269-.358-3.409a114.8,114.8,0,0,1,.34-19.669A69.555,69.555,0,0,1,12.1,118.4a7.365,7.365,0,0,0,.23-.735H10.265a2.9,2.9,0,0,1-3-3.039c-.014-1.927-.018-3.856,0-5.784a8.763,8.763,0,0,1,8.644-8.615q29.555-.024,59.108,0a8.5,8.5,0,0,1,8.461,7.025,53.383,53.383,0,0,1,.228,7.426,2.878,2.878,0,0,1-3.043,2.988H78.627c.075.242.092.336.132.42,4.183,9.471,5.817,19.469,5.9,29.736.039,4.693-.33,9.393-.554,14.088a1.583,1.583,0,0,0,.88,1.788,20.579,20.579,0,0,1,7.807,7.12c1.051,1.668,1.805,3.522,2.691,5.291v1.572a4.053,4.053,0,0,1-2.155,2.157ZM37.068,135.588c-3.287-.024-6.414-.1-9.54-.047a2.747,2.747,0,0,0-2.6,2.913,17.845,17.845,0,0,0,.7,4.322,40.59,40.59,0,0,0,2,4.481c-2.161.552-2.868,1.556-2.725,3.929a14.777,14.777,0,0,0,10.2,12.978,19.768,19.768,0,0,0,6.483.648c.676-.014,1.037.09,1.179.89a2.749,2.749,0,0,0,2.75,2.2c1.619.014,2.583-.925,3.071-3.106,1.167,0,2.371.049,3.57,0a14.538,14.538,0,0,0,13.679-12.12c.21-1.265.646-2.666-.2-3.809a12.352,12.352,0,0,0-2.312-1.931,14.563,14.563,0,0,0,2.729-7.99,2.992,2.992,0,0,0-3.3-3.43H54.022c-.2-.949-.361-2.108-.666-3.232-.982-3.6-3.733-5.827-6.45-8.016a2.322,2.322,0,0,0-3.1.134,51.128,51.128,0,0,0-4.839,5.228A10.825,10.825,0,0,0,37.068,135.588Z" transform="translate(4.513 -79.448)" fill="#535050"/>
  <path id="Path_113" data-name="Path 113" d="M192.356,9.342H155.1c1.338-1.721,2.528-3.34,3.809-4.878a36.324,36.324,0,0,1,8.813-8.124,10.758,10.758,0,0,1,12.161.065c4.086,2.554,7.19,6.114,10.139,9.835C190.787,7.206,191.5,8.206,192.356,9.342Z" transform="translate(-123.743 5.511)" fill="#535050"/>
  <path id="Path_114" data-name="Path 114" d="M278.763,369.81c-1.083,3.968-5.856,6.528-10.493,5.686C268.887,371.814,273.325,369.393,278.763,369.81Z" transform="translate(-214.679 -296.037)" fill="#535050"/>
  <path id="Path_115" data-name="Path 115" d="M239.574,256.29a6.418,6.418,0,0,1-.088,10.261A6.342,6.342,0,0,1,239.574,256.29Z" transform="translate(-189.485 -204.857)" fill="#535050"/>
  <path id="Path_116" data-name="Path 116" d="M188.836,375.324c-5.084.589-9.509-1.78-10.536-5.623C183.274,368.786,187.475,371.255,188.836,375.324Z" transform="translate(-142.385 -295.835)" fill="#535050"/>
  <path id="Path_117" data-name="Path 117" d="M278.86,309.562c-.953,3.3-4.7,6.438-10.45,5.633C269.235,311.945,273.333,308.546,278.86,309.562Z" transform="translate(-214.792 -247.516)" fill="#535050"/>
  <path id="Path_118" data-name="Path 118" d="M188.965,315.187c-5.224.519-9.839-2.008-10.495-5.7C184.112,308.574,187.9,311.9,188.965,315.187Z" transform="translate(-142.521 -247.482)" fill="#535050"/>
</svg>
