<svg xmlns="http://www.w3.org/2000/svg" width="71.433" height="100" viewBox="0 0 71.433 100">
  <g id="Group_4278" data-name="Group 4278" transform="translate(-9479 -1089)">
    <path id="Path_402" data-name="Path 402" d="M33.879,3A2.416,2.416,0,0,1,35,5.458V8.249a1.708,1.708,0,0,1-1.874,1.874H19.008a1.708,1.708,0,0,1-1.833-1.874V5.458A2.416,2.416,0,0,1,18.3,3Z" transform="translate(9506.48 1086)" fill="#535050"/>
    <path id="Path_403" data-name="Path 403" d="M51.12,45.849V75.382A5.332,5.332,0,0,1,45.289,81.3H21a5.374,5.374,0,0,1-4.582-2.249,1.208,1.208,0,0,1,0-1.791,23.077,23.077,0,0,0-1-32.325c-.583-.542-.75-.875-.292-1.666a4.582,4.582,0,0,0,.292-5.207,2.583,2.583,0,0,1,0-1v-19.7a19.119,19.119,0,0,1,1.291-6.623A1.166,1.166,0,0,1,18,9.858H48.746c.666,0,1.041.208,1.166.833A35.906,35.906,0,0,1,51,16.9C51.162,26.562,51.12,36.185,51.12,45.849ZM47.455,74.008V20.647H44.039V74.008ZM44.039,13.482V16.94H47.5V13.482Z" transform="translate(9499.277 1107.676)" fill="#535050"/>
    <path id="Path_404" data-name="Path 404" d="M39.255,21.829a19.525,19.525,0,1,1-20.161-4,8.7,8.7,0,0,0,.333.958,7.29,7.29,0,0,0,3.624,4.166,3.124,3.124,0,0,1,1.125.958A7,7,0,0,0,34.3,25.786,42.972,42.972,0,0,0,39.255,21.829ZM26.092,48.822A12.616,12.616,0,0,1,13.97,33.2l-3.291-.875A15.829,15.829,0,0,0,26.092,52.237ZM15.3,29.868l2.458-3-2.333-2.624L12.3,28.077Z" transform="translate(9472.57 1132.945)" fill="#535050"/>
    <path id="Path_405" data-name="Path 405" d="M44.2,14.448H15.92A17.12,17.12,0,0,1,28.75,7.325,17.62,17.62,0,0,1,44.2,14.448Z" transform="translate(9502.611 1099.545)" fill="#535050"/>
    <path id="Path_406" data-name="Path 406" d="M24.2,17.33A11.08,11.08,0,0,1,22.9,19.663a78.147,78.147,0,0,1-5.957,5.79,3.416,3.416,0,0,1-5.124-.916,3.541,3.541,0,0,1,1.5-5.124,23.744,23.744,0,0,1,9.331-2.333A8.332,8.332,0,0,1,24.2,17.33Z" transform="translate(9487.879 1130.571)" fill="#535050"/>
    <path id="Path_407" data-name="Path 407" d="M18,9.756V5.59H28.539V9.756A20.536,20.536,0,0,0,18,9.756Z" transform="translate(9509.196 1094.199)" fill="#535050"/>
    <path id="Path_408" data-name="Path 408" d="M10.72,27.5A15.246,15.246,0,0,1,13.594,15a13.2,13.2,0,0,1,2.874,6.873A7.915,7.915,0,0,0,10.72,27.5Z" transform="translate(9485.109 1123.987)" fill="#535050"/>
  </g>
</svg>
