<svg id="Group_27" data-name="Group 27" xmlns="http://www.w3.org/2000/svg" width="100" height="100.19" viewBox="0 0 100 100.19">
  <path id="Path_224" data-name="Path 224" d="M60.705,90.567l-2.086-.5A15.56,15.56,0,0,1,60.2,59.7a29.953,29.953,0,0,1,9.053.542l22.026,3.379,21.568,3.337,11.514,1.794a6.174,6.174,0,0,1,5.59,4.756v3.3a6.174,6.174,0,0,1-5.256,4.631l-13.683,2.128L90.366,86.4l-18.9,2.92L65,90.567ZM61,66.455V83.6h3.3V66.455Zm13.808,0V83.6h3.3V66.455ZM91.909,83.6V66.5H88.572V83.6ZM102.38,69.917V80.138h3.337V69.917Zm13.808,1.71v6.8h3.3v-6.8Z" transform="translate(-29.955 9.623)" fill="#535050"/>
  <path id="Path_225" data-name="Path 225" d="M76.864,75.614l-.626,2.712a19.816,19.816,0,0,1-4.631,8.635,2.211,2.211,0,0,1-1.377.5,17.276,17.276,0,0,1-2.5-.375A38.8,38.8,0,0,0,69.4,81.329a38.046,38.046,0,0,0-1.627-21.15,68.124,68.124,0,0,0-3.88-6.716,3.5,3.5,0,0,1,4.8,0,20.275,20.275,0,0,1,7.759,12.056,11.792,11.792,0,0,0,.417,1.961Z" transform="translate(23.136 -12.761)" fill="#535050"/>
  <path id="Path_226" data-name="Path 226" d="M61.413,81.7v3.421a28.2,28.2,0,0,1,8.761,1.752,2.461,2.461,0,0,1,.584.25c2.837,1.252,2.837,1.252,2.712,4.172a32.289,32.289,0,0,0,1,11.1l-5.089-.584c-2.253-.334-4.464-.751-6.716-.918a6.925,6.925,0,0,1-6.049-9.178l.5-1.46c-5.215-4.172-5.632-6.383-2.211-12.1l-1.585-.834A10.179,10.179,0,0,1,47.6,67.062a10.3,10.3,0,0,1,7.259-9.052,1.877,1.877,0,0,0,1.5-1.585,6.716,6.716,0,0,1,7.467-5.757,1.252,1.252,0,0,0,1.5-.918,6.842,6.842,0,0,1,7.342-4.172A6.967,6.967,0,0,1,78.642,51.5a2.568,2.568,0,0,0,.292,1.377,7.152,7.152,0,1,1,6.925,12.515,7.759,7.759,0,0,1,3.129,6.216A8.719,8.719,0,0,0,81.1,74.7a26.239,26.239,0,0,0-5.131,6.925c-.709-1.961-1.418-3.8-1.961-5.673A3.838,3.838,0,0,1,74.3,74.07a25.489,25.489,0,0,1,7.134-11.681l-2.127-2.628a27.95,27.95,0,0,0-7.426,10.68L64.75,56.632,61.83,58.51,67.587,69.4a29.452,29.452,0,0,0-11.472-1.335l.334,3.17a26.244,26.244,0,0,1,6.258.5,11.931,11.931,0,0,1,6.257,2.378,3.671,3.671,0,0,1,1.126,1.5c1,2.586,1.919,5.256,2.837,7.884l.292,1a29.827,29.827,0,0,0-11.806-2.8Z" transform="translate(-28.702 -34.996)" fill="#535050"/>
  <path id="Path_227" data-name="Path 227" d="M75.25,50.311l5.089-.292v.459l-.876.375A10.847,10.847,0,0,0,75,54.483a1.71,1.71,0,0,1-1.085.709,10.471,10.471,0,0,0-8.844,7.217,1.961,1.961,0,0,1-.751.793,13.516,13.516,0,0,0-8.343,11.556,13.266,13.266,0,0,0,4.672,11.514l1.21.96a14.582,14.582,0,0,1-.626,2.586,10.137,10.137,0,0,0,2.962,8.969,1.543,1.543,0,0,1,.5,1.043,10.6,10.6,0,0,0,3.129,9.553l-2.878,1.168a3.441,3.441,0,0,0-.417-1.085L60.816,99.12c0-.459-.292-.834-.96-.834a6.883,6.883,0,0,1-6.758-9.97,3.337,3.337,0,0,0,.25-.709,7.592,7.592,0,0,1-4.172-5.3,8.01,8.01,0,0,1,2.086-6.633l-1.669-.918a10.3,10.3,0,0,1,1.71-19.19,1.836,1.836,0,0,0,1.46-1.627,6.716,6.716,0,0,1,7.592-5.715,1.043,1.043,0,0,0,1.293-.751,6.883,6.883,0,0,1,7.426-4.422,7.05,7.05,0,0,1,5.965,6.216A6.466,6.466,0,0,0,75.25,50.311Z" transform="translate(-40.62 -42.983)" fill="#535050"/>
  <path id="Path_228" data-name="Path 228" d="M60.506,64.953a53.066,53.066,0,0,0,5.548-.918,5.632,5.632,0,0,0,4.172-3.087A3.754,3.754,0,0,0,68.808,56.4c-.417-.375-1.168-.667-1.21-1.085a11.431,11.431,0,0,1,0-2.837c.959.667,1.752,1.085,2.42,1.669a20.859,20.859,0,0,1,7.3,15.936,80.934,80.934,0,0,1-.25,9.595,29.2,29.2,0,0,1-1.836,6.3,1.085,1.085,0,0,1-.918.5C70.143,85.9,65.971,85.228,61.8,84.56a1.085,1.085,0,0,1-.667-.751,38.631,38.631,0,0,1-.667-5.757c0-4.172,0-7.968,0-11.973a7.217,7.217,0,0,1,.042-1.126Z" transform="translate(12.253 -12.863)" fill="#535050"/>
  <path id="Path_229" data-name="Path 229" d="M66.973,52.55v2.294a1.5,1.5,0,0,1-.417.751.639.639,0,0,0-.542.334,3.755,3.755,0,0,0,0,6.758A2.879,2.879,0,0,1,67.6,66.025a67.749,67.749,0,0,0,.334,17.187v.5l-6.3-.959a27.919,27.919,0,0,1-3.087-.5c-1.043-.125-.834-.334-.918-.918a33.92,33.92,0,0,1-.584-4.547,70.922,70.922,0,0,1,.459-9.845,20.024,20.024,0,0,1,8.343-13.767l.542-.334Z" transform="translate(1.364 -12.641)" fill="#535050"/>
  <path id="Path_230" data-name="Path 230" d="M67.944,53.71a25.614,25.614,0,0,0-4.964,8.343,23.654,23.654,0,0,0-1.418,7.8c0,3.88,0,7.8.25,11.806-1.669-.292-3.588-.542-5.507-.918,0,0-.417-.375-.459-.626a38,38,0,0,1-1.126-6.007,28.159,28.159,0,0,1,.793-10.221A20.859,20.859,0,0,1,62.771,53.46a3.671,3.671,0,0,1,5.173.25Z" transform="translate(-6.448 -12.758)" fill="#535050"/>
  <path id="Path_231" data-name="Path 231" d="M70.158,71.077a8.343,8.343,0,0,1-10.638,0c.876-.375,1.669-.876,2.545-1.168a.918.918,0,0,0,.793-1.21C62.4,63.609,61.9,58.52,61.439,53.472a6.758,6.758,0,0,1,0-2.253,3.3,3.3,0,0,1,4.172-2.294,3.087,3.087,0,0,1,2.67,3.254,85.914,85.914,0,0,1-.751,8.677c-.292,2.878-.459,5.3-.751,7.968,0,.584,0,.834.751,1.043A15.606,15.606,0,0,1,70.158,71.077Z" transform="translate(9.276 -24.618)" fill="#535050"/>
  <path id="Path_232" data-name="Path 232" d="M56.758,62.87v3.421h-12.1a1.627,1.627,0,0,1-1.627-1.752,1.585,1.585,0,0,1,1.585-1.669Z" transform="translate(-43.029 20.091)" fill="#535050"/>
  <path id="Path_233" data-name="Path 233" d="M53.629,64.52l.542,1.627c-2.837.584-5.548,1.252-8.343,1.794a1.415,1.415,0,0,1-1.585-1.46c-.042-.959.334-1.961,1.418-1.961Z" transform="translate(-39.19 25.324)" fill="#535050"/>
  <path id="Path_234" data-name="Path 234" d="M54.164,63.054l-.542,1.585H45.57c-1.043,0-1.46-.876-1.293-2.169a1.418,1.418,0,0,1,1.794-1.21C48.741,61.8,51.578,62.428,54.164,63.054Z" transform="translate(-39.183 14.817)" fill="#535050"/>
</svg>
