<svg xmlns="http://www.w3.org/2000/svg" width="60.841" height="100" viewBox="0 0 60.841 100">
  <g id="Group_68" data-name="Group 68" transform="translate(-5202.66 -920.504)">
    <g id="Group_22" data-name="Group 22" transform="translate(5202.66 920.504)">
      <path id="Path_254" data-name="Path 254" d="M207.816,71.292a12.939,12.939,0,0,1,.375-2.5,18.727,18.727,0,0,1,15.938-15.439,24.96,24.96,0,0,1,3.08,0h22.139A18.643,18.643,0,0,1,264,59.848,18.062,18.062,0,0,1,268.491,70.5a7.676,7.676,0,0,0,0,.957v1.373a40.451,40.451,0,0,1-.874,4.578c-1.914,5.7-3.912,11.4-5.909,17.1a1.249,1.249,0,0,1-.916.666h-7.7a49.105,49.105,0,0,1-13.483-3.662,28.631,28.631,0,0,0-24.719,1.207l-1,.458c-1.124-3.121-2.206-6.159-3.2-9.238s-1.873-6.076-2.747-9.114a15.87,15.87,0,0,1-.291-2.788Zm57.345.583h-.208v-1.29a4.406,4.406,0,0,0-.333-1.914c-.333-.666-1.04-2-2.081-1.789a1.789,1.789,0,0,0-1.373,2.455,12.152,12.152,0,0,1-.541,6.991l-4.161,11.943a4.163,4.163,0,0,0-.25,1.373,1.665,1.665,0,0,0,1.54,1.54,1.873,1.873,0,0,0,1.914-1.415c1.5-4.161,3.038-8.531,4.453-12.859A50.589,50.589,0,0,0,265.161,71.875Zm-14.44-15.023c-1.789,0-2.538.458-2.622,1.54a1.748,1.748,0,0,0,1.831,1.956,12.484,12.484,0,0,1,7.574,2.871,1.706,1.706,0,0,0,2.58-.25,1.748,1.748,0,0,0-.416-2.5A14.69,14.69,0,0,0,250.721,56.852Z" transform="translate(-207.65 -10.285)" fill="#535050"/>
      <path id="Path_255" data-name="Path 255" d="M219.176,80.534a34.773,34.773,0,0,1-3.579-1.623,8.323,8.323,0,0,1-3.371-4.411c-.957-2.58-1.831-5.243-2.747-7.948a22.8,22.8,0,0,1,7.574-3.121,24.969,24.969,0,0,1,15.314,1.124A50.772,50.772,0,0,0,245.393,68.3c2.455.291,4.994.375,7.491.541h1.873c-1,2.538-1.789,4.994-2.913,7.324a7.99,7.99,0,0,1-5.7,4.161,1.291,1.291,0,0,0-.416,0Z" transform="translate(-201.864 19.466)" fill="#535050"/>
      <path id="Path_256" data-name="Path 256" d="M222.091,43l3.454,7.074H213.56L217.014,43Z" transform="translate(-188.966 -42.875)" fill="#535050"/>
      <path id="Path_257" data-name="Path 257" d="M221.48,43c-1.04,2.122-2.122,4.161-3.121,6.367a1.29,1.29,0,0,1-1.332.832H210.91l.666-.749,5.618-5.66.583-.749Z" transform="translate(-197.344 -42.875)" fill="#535050"/>
      <path id="Path_258" data-name="Path 258" d="M220.254,43.095c.749.832,1.5,1.665,2.289,2.455l4.7,4.619H221a1.29,1.29,0,0,1-1.332-.832c-1-2.164-2.081-4.161-3.121-6.367Z" transform="translate(-179.513 -42.97)" fill="#535050"/>
      <path id="Path_259" data-name="Path 259" d="M230.639,50.29v8.822H212.87V50.29Z" transform="translate(-191.147 -19.828)" fill="#535050"/>
      <path id="Path_260" data-name="Path 260" d="M215.67,61.641l.416-1c2.164-4.744,4.162-9.488,6.45-14.232a1.082,1.082,0,0,1,1.207-.832h6.95c-.208.333-.291.541-.416.749-3.121,4.827-6.284,9.613-9.363,14.44a1.581,1.581,0,0,1-1.623.874Z" transform="translate(-182.295 -34.758)" fill="#535050"/>
      <path id="Path_261" data-name="Path 261" d="M225.545,61.6h-4.161a1,1,0,0,1-.666-.375c-3.371-5.119-6.658-10.237-9.988-15.356V45.58h7.283a.832.832,0,0,1,.541.375c2.33,5.16,4.661,10.279,6.95,15.4C225.628,61.394,225.586,61.435,225.545,61.6Z" transform="translate(-197.913 -34.719)" fill="#535050"/>
      <path id="Path_262" data-name="Path 262" d="M225.8,45.59l-6.117,13.483L213.52,45.59Z" transform="translate(-189.092 -34.687)" fill="#535050"/>
    </g>
  </g>
</svg>
