<svg xmlns="http://www.w3.org/2000/svg" width="100" height="81.902" viewBox="0 0 100 81.902">
  <g id="Group_70" data-name="Group 70" transform="translate(-4997.999 -962.729)">
    <path id="Path_281" data-name="Path 281" d="M3.032,143.13a15.72,15.72,0,0,1,.583-2.706,2.457,2.457,0,0,1,2.165-2.165,22.192,22.192,0,0,1,14.365,1.582l.541.25h0c.5-2.207.874-4.413,1.541-6.579a24.108,24.108,0,0,1,6.2-9.868L53,99.161a2.123,2.123,0,0,1,2.5-.749c1.541.666,1.749,2.165.458,3.5l-6.787,6.828-.666.666,30.228,30.228.625-.583,12.991-13.032A21.068,21.068,0,0,0,98.8,113.526,21.36,21.36,0,0,0,83.932,90.21a20.819,20.819,0,0,0-14.365.583l-.625.25a2.01,2.01,0,1,1-1.457-3.747,39.6,39.6,0,0,1,6.121-1.79A25.44,25.44,0,0,1,96.09,128.057C86.43,137.925,76.6,147.585,66.944,157.2a37.473,37.473,0,0,1-7.911,6.62A25.565,25.565,0,0,1,42,166.7a10.12,10.12,0,0,0-2.5,0,24.483,24.483,0,0,1-8.327-.333,11.407,11.407,0,0,0-3.5.375A21.734,21.734,0,0,1,3.573,150.083c-.208-.916-.375-1.874-.583-2.831Zm27.48,7.286.541-1A21.734,21.734,0,0,1,55.2,138.508a2.54,2.54,0,0,1,2.248,2.082,21.651,21.651,0,0,1-7.578,22.026l-.708.625h.708a21.609,21.609,0,0,0,11.908-6.2l13.365-13.365.625-.708L45.418,112.568l-.375.25c-4.788,4.83-9.7,9.576-14.448,14.49a20.568,20.568,0,0,0-5.746,15.072,1.5,1.5,0,0,0,.333,1.041,23.359,23.359,0,0,1,5.329,6.995Zm-2.5,10.076.541-.375a23.176,23.176,0,0,0-.458-4.164,17.779,17.779,0,0,0-18.612-14.24c-2.956.25-2.373,0-2.54,2.748a17.7,17.7,0,0,0,13.157,18.2,12.909,12.909,0,0,0,5.371.375c-.208-.291-.5-.458-.708-.708-2.082-2.04-4.164-4.164-6.2-6.2a1.957,1.957,0,0,1,0-3.164,2,2,0,0,1,2.623.458l6.121,6.121a3.5,3.5,0,0,1,.708.958Zm4.455,0,.874-.833,6.162-6.121a2,2,0,0,1,3.123,0,2.123,2.123,0,0,1-.375,2.831l-6.287,6.245-.583.708a17.32,17.32,0,0,0,6.454-.874A17.862,17.862,0,0,0,53.87,143.088a1.166,1.166,0,0,0-1.332-1.166,42.01,42.01,0,0,0-5.621,0,17.737,17.737,0,0,0-14.365,18.4Z" transform="translate(4995.009 877.534)" fill="#535050"/>
    <path id="Path_282" data-name="Path 282" d="M18.462,90.954a2.082,2.082,0,1,1,0-4.164,2.207,2.207,0,0,1,2.082,1.915,2.082,2.082,0,0,1-2.082,2.248Z" transform="translate(5037.371 882.577)" fill="#535050"/>
    <path id="Path_283" data-name="Path 283" d="M13.914,129.808a23.358,23.358,0,0,0-5.329-7.245,1.5,1.5,0,0,1-.333-1.041A20.569,20.569,0,0,1,14,106.449c4.747-4.913,9.66-9.66,14.448-14.49l.375-.25,30.353,30.353-.625.708L45.183,136.136a21.609,21.609,0,0,1-11.908,6.2h-.708l.708-.625a21.651,21.651,0,0,0,7.578-22.026,2.54,2.54,0,0,0-2.248-2.082,21.734,21.734,0,0,0-24.149,11.117Z" transform="translate(5011.606 898.142)" fill="#535050"/>
  </g>
</svg>
